<svg height="511pt" viewBox="0 -90 511.99931 511" width="511pt" xmlns="http://www.w3.org/2000/svg">
    <path d="m256 221.648438h-250.023438c-7.152343 0-8.257812-10.269532-1.28125-11.789063l152.160157-33.25 67.898437-14.832031zm0 0" fill="#c4daec"/>
    <path d="m256 320.453125c-4.25 0-7.695312-3.445313-7.695312-7.695313v-54.011718c0-4.246094 3.445312-7.691406 7.695312-7.691406s7.695312 3.445312 7.695312 7.691406v54.011718c0 4.25-3.445312 7.695313-7.695312 7.695313zm0 0" fill="#a3c0d9"/>
    <path d="m271.378906 320.453125h-30.507812c-4.25 0-7.695313-3.445313-7.695313-7.695313s3.445313-7.695312 7.695313-7.695312h30.507812c4.25 0 7.695313 3.445312 7.695313 7.695312s-3.445313 7.695313-7.695313 7.695313zm0 0" fill="#a3c0d9"/>
    <path d="m238.773438 93.464844 11.710937-88.085938c.863281-6.507812 10.285156-6.503906 11.140625.007813l11.601562 88.078125" fill="#a3c0d9"/>
    <g fill="#c4daec">
        <path d="m284.726562 107.679688 106.160157 11.710937c7.84375.863281 7.835937 10.28125-.007813 11.140625l-106.152344 11.597656"/>
        <path d="m227.4375 107.679688-106.160156 11.710937c-7.84375.863281-7.835938 10.28125.007812 11.140625l106.152344 11.597656"/>
        <path d="m506.023438 221.648438h-250.023438l31.246094-59.871094 67.898437 14.832031 152.160157 33.25c6.976562 1.519531 5.867187 11.789063-1.28125 11.789063zm0 0"/>
    </g>
    <path d="m224.753906 161.777344 31.246094 59.871094h-89.488281c-6.011719-13.664063-9.460938-28.921876-9.65625-45.039063zm0 0" fill="#a3c0d9"/>
    <path d="m355.144531 176.609375c-.195312 16.117187-3.644531 31.375-9.65625 45.039063h-89.488281l31.246094-59.871094zm0 0" fill="#a3c0d9"/>
    <path d="m332.808594 175.046875c0-46.226563-34.386719-83.699219-76.808594-83.699219s-76.808594 37.472656-76.808594 83.699219 34.386719 83.703125 76.808594 83.703125 76.808594-37.476562 76.808594-83.703125zm0 0" fill="#e5f4ff"/>
    <path d="m300.214844 153.621094c-13.792969 5.488281-28.679688 8.484375-44.214844 8.484375s-30.425781-2.996094-44.214844-8.484375c4.0625-9.953125 10.867188-18.261719 19.363282-23.824219 7.378906 2.289063 15.195312 3.765625 23.332031 3.992187 8.9375.246094 17.957031-1.003906 26.886719-3.652343 8.257812 5.5625 14.867187 13.738281 18.847656 23.484375zm0 0" fill="#41739f"/>
    <path d="m281.316406 207.78125c0-11.28125-11.335937-20.429688-25.316406-20.429688-13.984375 0-25.316406 9.148438-25.316406 20.429688 0 11.285156 11.332031 20.429688 25.316406 20.429688 13.980469 0 25.316406-9.144532 25.316406-20.429688zm0 0" fill="#ffdb06"/>
    <path d="m149.03125 215.476562c0-19.046874-15.441406-34.484374-34.492188-34.484374-19.046874 0-34.492187 15.4375-34.492187 34.484374 0 19.046876 15.445313 34.484376 34.492187 34.484376 19.050782 0 34.492188-15.4375 34.492188-34.484376zm0 0" fill="#41739f"/>
    <path d="m122.234375 215.476562c0 4.25-3.445313 7.695313-7.695313 7.695313s-7.695312-3.445313-7.695312-7.695313 3.445312-7.695312 7.695312-7.695312 7.695313 3.445312 7.695313 7.695312zm0 0" fill="#c4daec"/>
    <path d="m432.832031 215.476562c0-19.046874-15.441406-34.484374-34.488281-34.484374-19.050781 0-34.492188 15.4375-34.492188 34.484374 0 19.046876 15.441407 34.484376 34.492188 34.484376 19.046875 0 34.488281-15.4375 34.488281-34.484376zm0 0" fill="#41739f"/>
    <path d="m406.039062 215.476562c0 4.25-3.445312 7.695313-7.695312 7.695313s-7.695312-3.445313-7.695312-7.695313 3.445312-7.695312 7.695312-7.695312 7.695312 3.445312 7.695312 7.695312zm0 0" fill="#c4daec"/>
    <path d="m235.496094 331.304688h-14.1875c-2.96875 0-5.375-2.40625-5.375-5.371094v-26.347656c0-2.96875 2.40625-5.375 5.375-5.375h14.1875c2.96875 0 5.375 2.40625 5.375 5.375v26.347656c0 2.964844-2.40625 5.371094-5.375 5.371094zm0 0" fill="#41739f"/>
    <path d="m290.941406 331.304688h-14.1875c-2.96875 0-5.375-2.40625-5.375-5.371094v-26.347656c0-2.96875 2.40625-5.375 5.375-5.375h14.1875c2.96875 0 5.375 2.40625 5.375 5.375v26.347656c0 2.964844-2.40625 5.371094-5.375 5.371094zm0 0" fill="#41739f"/>
    <path d="m284.03125 336.664062c0-2.8125 2.28125-5.085938 5.085937-5.085938 2.804687 0 5.085937 2.273438 5.085937 5.085938s-2.28125 5.085937-5.085937 5.085937-5.085937-2.273437-5.085937-5.085937zm0 0" fill="#c4daec"/>
</svg>
