<svg id="Layer_1" enable-background="new 0 0 512 512" height="512" viewBox="0 0 512 512" width="512" xmlns="http://www.w3.org/2000/svg"><g id="XMLID_1_"><g id="XMLID_3199_"><g id="XMLID_82_"><path id="XMLID_1479_" d="m0 176h171v10h-171z" fill="#ffffff"/></g><g id="XMLID_389_"><path id="XMLID_1478_" d="m113 123h134v10h-134z" fill="#ffffff"/></g><g id="XMLID_89_"><path id="XMLID_1477_" d="m57 234h115v10h-115z" fill="#ffffff"/></g><g id="XMLID_642_"><path id="XMLID_1476_" d="m334 256h10v176h-10z" fill="#ffffff"/></g><g id="XMLID_700_"><path id="XMLID_1475_" d="m339 261c-.8 0-1.6-.2-2.3-.6l-168-88 4.6-8.9 165.7 86.9 165.7-86.8 4.6 8.9-168 88c-.7.3-1.5.5-2.3.5z" fill="#ffffff"/></g><g id="XMLID_384_"><path id="XMLID_1473_" d="m403 296c-.9 0-1.8-.3-2.6-.8-1.5-.9-2.4-2.5-2.4-4.2v-65.5l-169.1-84.5 4.5-8.9 171.9 85.9c1.7.8 2.8 2.6 2.8 4.5v60.5l38-18.6v-63.3l-149-75.1 4.5-8.9 151.8 76.5c1.7.9 2.7 2.6 2.7 4.5v69.5c0 1.9-1.1 3.7-2.8 4.5l-48 23.5c-.8.2-1.5.4-2.3.4z" fill="#ffffff"/></g><g id="XMLID_21_"><path id="XMLID_1470_" d="m246.8 355h72.4v10h-72.4z" fill="#ffffff" transform="matrix(.897 .442 -.442 .897 188.107 -87.978)"/></g><g id="XMLID_386_"><path id="XMLID_1454_" d="m281.1 327.4h36.3v10h-36.3z" fill="#ffffff" transform="matrix(.894 .447 -.447 .894 180.223 -98.731)"/></g><g id="XMLID_387_"><path id="XMLID_1451_" d="m110 363h108v10h-108z" fill="#ffffff"/></g><g id="XMLID_1239_"><path id="XMLID_685_" d="m339 437c-.8 0-1.6-.2-2.3-.6l-49.5-25.9 4.6-8.9 47.2 24.7 163-85.3v-170l-163-85.4-163 85.4v170l97.2 50.9-4.6 8.9-99.9-52.3c-1.6-.9-2.7-2.6-2.7-4.4v-176.1c0-1.9 1-3.6 2.7-4.4l168-88c1.5-.8 3.2-.8 4.6 0l168 88c1.6.9 2.7 2.6 2.7 4.4v176c0 1.9-1 3.6-2.7 4.4l-168 88c-.7.4-1.5.6-2.3.6z" fill="#ffffff"/></g></g></g></svg>