<svg height="512pt" viewBox="0 -87 512 512" width="512pt" xmlns="http://www.w3.org/2000/svg"><path d="m133.894531 288.289062c0 4.960938-.71875 9.757813-2.070312 14.273438-6.140625 20.664062-25.273438 35.730469-47.9375 35.730469-22.660157 0-41.792969-15.066407-47.9375-35.730469-1.347657-4.515625-2.070313-9.3125-2.070313-14.273438 0-10.292968 3.109375-19.851562 8.429688-27.796874 8.972656-13.390626 24.246094-22.210938 41.578125-22.210938s32.601562 8.820312 41.578125 22.210938c5.320312 7.945312 8.429687 17.503906 8.429687 27.796874zm0 0" fill="#41739f"/><path d="m133.894531 288.289062c0 4.960938-.71875 9.757813-2.070312 14.273438h-95.875c-1.347657-4.515625-2.070313-9.3125-2.070313-14.273438 0-10.292968 3.109375-19.851562 8.429688-27.796874h83.15625c5.320312 7.945312 8.429687 17.503906 8.429687 27.796874zm0 0" fill="#355d7c"/><path d="m102.367188 288.285156c0 10.324219-8.367188 18.691406-18.6875 18.691406-10.324219 0-18.691407-8.367187-18.691407-18.691406 0-10.320312 8.367188-18.6875 18.691407-18.6875 10.320312 0 18.6875 8.367188 18.6875 18.6875zm0 0" fill="#c4daec"/><path d="m480.644531 288.289062c0 4.960938-.722656 9.757813-2.070312 14.273438-6.144531 20.664062-25.277344 35.730469-47.9375 35.730469-22.652344 0-41.796875-15.066407-47.941407-35.730469-1.347656-4.515625-2.066406-9.3125-2.066406-14.273438 0-10.292968 3.105469-19.851562 8.425782-27.796874 8.976562-13.390626 24.25-22.210938 41.582031-22.210938 17.328125 0 32.601562 8.820312 41.578125 22.210938 5.320312 7.945312 8.429687 17.503906 8.429687 27.796874zm0 0" fill="#41739f"/><path d="m480.644531 288.289062c0 4.960938-.722656 9.757813-2.070312 14.273438h-95.878907c-1.347656-4.515625-2.066406-9.3125-2.066406-14.273438 0-10.292968 3.105469-19.851562 8.425782-27.796874h83.160156c5.320312 7.945312 8.429687 17.503906 8.429687 27.796874zm0 0" fill="#355d7c"/><path d="m506.125 199.691406v44.96875h-176.703125v-160.253906h70c3.921875 0 7.667969 1.636719 10.300781 4.53125l70.796875 77.335938 15.324219 16.746093 6.617188 7.234375c2.355468 2.574219 3.664062 5.9375 3.664062 9.4375zm0 0" fill="#ffdb06"/><path d="m449.121094 288.285156c0 10.324219-8.367188 18.691406-18.691406 18.691406-10.324219 0-18.691407-8.367187-18.691407-18.691406 0-10.320312 8.367188-18.6875 18.691407-18.6875 10.324218 0 18.691406 8.367188 18.691406 18.6875zm0 0" fill="#c4daec"/><path d="m336.234375 244.660156h-325.570313v-203.164062c0-22.917969 18.578126-41.496094 41.5-41.496094h242.566407c22.917969 0 41.5 18.578125 41.5 41.496094zm0 0" fill="#a3c0d9"/><path d="m336.230469 41.496094c0-22.917969-18.582031-41.496094-41.5-41.496094h-39.554688c22.921875 0 41.5 18.578125 41.5 41.496094l.003907 197.960937h39.550781zm0 0" fill="#83a7c5"/><path d="m495.84375 183.019531h-99.878906c-11.488282 0-20.800782-9.292969-20.800782-20.789062v-77.820313h24.257813c3.921875 0 7.667969 1.636719 10.300781 4.527344l70.796875 77.339844zm0 0" fill="#ff6969"/><path d="m480.515625 166.273438h-72.699219c-8.148437 0-14.757812-6.597657-14.757812-14.757813v-67.109375h6.359375c3.929687 0 7.667969 1.640625 10.308593 4.535156zm0 0" fill="#53e1f7"/><path d="m505.097656 281.523438h-498.195312c-3.8125 0-6.902344-3.089844-6.902344-6.902344v-28.261719c0-3.8125 3.089844-6.902344 6.902344-6.902344h498.195312c3.8125 0 6.902344 3.089844 6.902344 6.902344v28.261719c0 3.8125-3.089844 6.902344-6.902344 6.902344zm0 0" fill="#6193ff"/><path d="m505.097656 281.523438h-498.195312c-3.8125 0-6.902344-3.089844-6.902344-6.902344v-28.261719c0-3.8125 3.089844-6.902344 6.902344-6.902344h498.195312c3.8125 0 6.902344 3.089844 6.902344 6.902344v28.261719c0 3.8125-3.089844 6.902344-6.902344 6.902344zm0 0" fill="#6193ff"/><path d="m506.128906 239.457031h-10.660156c-10.214844 0-18.5-8.285156-18.5-18.5 0-10.21875 8.285156-18.5 18.5-18.5h10.660156zm0 0" fill="#ff6969"/><path d="m227.242188 177.136719h-107.589844c-2.128906 0-3.855469-1.730469-3.855469-3.859375v-107.097656c0-2.132813 1.726563-3.859376 3.855469-3.859376h107.589844c2.128906 0 3.855468 1.726563 3.855468 3.859376v107.097656c0 2.128906-1.726562 3.859375-3.855468 3.859375zm0 0" fill="#ffd886"/><path d="m188.273438 107.910156-14.824219-9.203125-14.824219 9.203125c-.542969.335938-1.234375-.0625-1.234375-.710937v-44.878907h32.113281v44.878907c.003906.648437-.691406 1.046875-1.230468.710937zm0 0" fill="#e57917"/></svg>