<!-- <svg id="Layer_1" fill="#0072ec"  enable-background="new 0 0 500 500" viewBox="0 0 500 500" xmlns="http://www.w3.org/2000/svg"><path clip-rule="evenodd" d="m120.807 333.619c3.596 9.344 7.836 13.967 9.521 24.624.809 5.118.732 10.31-.215 15.676l-8.32 47.114c-.053.303-.245.538-.531.651l-48.352 19.138c-.77.305-1.485-.551-1.049-1.254l47.816-77.273c.145-.234.171-.497.074-.755-4.208-11.237-10.207-19.412-13.947-31.654-.228-.746-1.254-.829-1.597-.127l-50.3 102.641c-.012.026-.024.047-.039.071-2.608 4.255-1.277 9.532 2.901 12.038 3.088 1.852 5.741 2.995 9.417 1.366l61.84-.074c1.039 0 1.477.246 3.035.01l68.46-.01c.621 0 1.037-.631.791-1.202-2.642-6.139-2.196-13.305 1.512-19.238l28.144-45.03c.44-.704-.276-1.563-1.047-1.257l-81.176 32.129c-.669.265-1.348-.358-1.142-1.048l15.864-53.082c3.069-18.074-7.064-26.076-6.869-31.658.003-.083.015-.152.04-.231 15.279-48.254 2.331-54.023 9.674-60.052.069-.056.135-.095.217-.129 18.899-7.859 36.29-31.753 50.538-47.327.077-.085.13-.17.17-.277 3.019-8 5.712-15.488-3.418-20.714-.358-.205-.798-.132-1.072.176l-32.179 36.282c-.725 1.264-1.816 2.191-3.064 2.721l.002.005-50.49 21.517c-3.471 1.479-5.892 4.241-7.524 7.638-.051.107-10.615 41.506-10.469 42.969.682 6.868 9.871 18.055 12.784 25.626zm121.105 110.763 50.868-59.808c.535-.63 1.567-.213 1.516.612l-3.099 49.58c-.449 7.187 2.288 9.566 1.565 10.652-.165.247-.42.384-.717.384h-49.477c-.735-.001-1.133-.86-.656-1.42zm91.58.225c.992-2.366 1.15-3.503 1.556-5.95l14.827-88.116.047-.489c.526-5.791-.169-11.621-2.282-17.044-.172-.44.046-.94.485-1.114l94.773-37.511c2.203-.872 4.572.739 4.572 3.108v147.45c0 .475-.387.861-.861.861h-112.323c-.618-.001-1.033-.626-.794-1.195zm-174.751-215.559c-7.95 7.95-20.843 7.949-28.792 0-12.789-12.79-3.689-34.754 14.396-34.754 18.086 0 27.185 21.964 14.396 34.754zm104.877-3.326c14.171 14.171 38.506 4.086 38.506-15.95 0-20.035-24.334-30.121-38.506-15.95-8.808 8.808-8.808 23.092 0 31.9zm-9.055 43.733c.302.183.456.509.406.858l-3.687 25.81c-.081.57-.682.91-1.228.653l-7.97-4.273c-2.021-1.18-4.206-1.536-6.495-.371l-24.424 12.445c-.338.172-.732.11-1-.159l-20.569-20.568c-.273-.273-.333-.677-.15-1.017 3.095-5.744 14.628-23.775 12.614-29.808-.101-.303-.037-.614.178-.851l17.359-19.16c.428-.472 1.197-.336 1.436.254 5.497 13.553 21.496 28.9 33.53 36.187zm45.052-162.621c-24.178 0-46.068 9.801-61.913 25.646-20.143 20.143-22.577 41.345-23.588 42.317l-35.01 33.639c-.492.472-1.307.217-1.441-.451-2.046-10.172-9.086-18.618-18.565-22.541-.329-.136-.532-.44-.532-.796v-4.811c0-.379.234-.702.595-.819l26.049-8.464-.005-.014c2.025-.661 3.679-2.312 4.245-4.529 2.577-10.069 6.77-20.187 12.056-29.15 1.186-2.011 1.528-4.219.37-6.494l-12.444-24.424c-.172-.338-.11-.732.159-1l20.575-20.575c.268-.268.662-.331 1-.159l24.422 12.443.003-.006c1.9.964 4.236.968 6.206-.196 8.926-5.277 18.949-9.512 28.985-12.109 2.323-.601 4.163-1.791 4.997-4.358l8.463-26.046c.117-.361.44-.595.819-.595h29.113c.379 0 .702.234.819.595l8.463 26.046.014-.005c.66 2.025 2.312 3.679 4.529 4.245 10.074 2.578 20.185 6.771 29.152 12.06 2.011 1.186 4.22 1.528 6.494.37l24.423-12.445c.338-.172.732-.11 1 .159l20.575 20.575c.268.268.331.662.158 1l-12.444 24.424.006.003c-.964 1.9-.968 4.236.196 6.206 5.333 9.015 9.457 18.847 12.107 28.982.601 2.323 1.791 4.162 4.358 4.996l26.049 8.464c.361.117.595.44.595.819v29.113c0 .379-.234.702-.595.819l-26.046 8.463.005.014c-2.025.661-3.679 2.312-4.245 4.529-2.577 10.075-6.77 20.185-12.059 29.152-1.186 2.011-1.528 4.22-.37 6.494l12.444 24.424c.172.338.11.732-.158 1l-20.575 20.574c-.268.268-.662.331-1 .159l-24.424-12.445-.003.006c-1.9-.964-4.236-.967-6.206.196-9.116 5.39-19.184 9.6-29.435 12.224-.343.088-1.697.754-1.881-.443l-3.76-24.378c-.067-.434.199-.844.622-.961 17.323-4.787 32.486-14.75 43.712-28.116 11.651-13.871 19.075-31.433 20.287-50.7 1.174-15.248-.254-30.19-8.83-44.29-.014-.022-.024-.042-.036-.066-14.649-29.594-44.865-48.77-78.5-48.77zm-36.205 242.744c.263-.42.817-.534 1.223-.25l25.756 17.984c.419.293.494.875.163 1.264l-62.511 73.506c-1.189 1.77-3.778 3.6-5.375 3.638-4.096.097-3.791.472-7.736-1.895-4.198-2.518-5.517-7.853-2.879-12.074zm-2.051-32.782c-1.221 8.544 2.241 16.291 9.436 21.087l33.915 22.61c2.302 1.535 2.979 3.753 2.822 6.243l-4.299 68.782c-.415 6.643 5.12 11.139 11.402 10.312 4.522-.596 8.035-4.203 8.452-8.759.002-.022.004-.04.008-.062l14.81-88.016c.444-2.621-.098-6.994-.764-9.39-.803-2.887-2.182-5.66-4.142-8.34l-19.741-20.585c-1.236-1.293-1.197-3.264-1.276-4.357l-2.345-32.649c.632-10.421 4.985-19.29 12.827-26.182.014-.013.026-.024.04-.037l55.402-55.145c1.303-1.3 2.028-2.423 2.218-4.245.269-2.575-.752-3.928-2.108-5.736-2.254-3.007-6.456-3.505-9.368-1.123-.013.011-.025.02-.038.03l-91.192 66.728c-2.056 1.519-4.311 4.364-5.446 6.388-1.324 2.361-2.193 5.006-2.613 7.945z" fill-rule="evenodd"/></svg> -->
<svg
  version="1.1"
  xmlns="http://www.w3.org/2000/svg"
  xmlns:xlink="http://www.w3.org/1999/xlink"
  viewBox="0 0 300 300"
  width="300px"
  height="300px"
>
  <g>
    <!-- Cloud -->
    <path
      d="M75,160c-15,0-27-12-27-27c0-13,9-24,21-26c4-24,25-41,50-41c13,0,25,5,34,13c10-8,22-13,34-13
      c25,0,46,17,50,41c12,2,21,13,21,26c0,15-12,27-27,27H75z"
      fill="#87CEEB"
    />
    
    <!-- Circuit Patterns -->
    <line x1="75" y1="160" x2="55" y2="200" stroke="#008000" stroke-width="3" />
    <line x1="95" y1="160" x2="125" y2="200" stroke="#008000" stroke-width="3" />
    <line x1="145" y1="160" x2="165" y2="200" stroke="#008000" stroke-width="3" />
    <line x1="195" y1="160" x2="215" y2="200" stroke="#008000" stroke-width="3" />
    <line x1="215" y1="160" x2="235" y2="200" stroke="#008000" stroke-width="3" />
    
    <!-- Technology Symbols -->
    <rect x="100" y="220" width="100" height="20" fill="#FFD700" />
    <circle cx="150" cy="240" r="10" fill="#FF6347" />
    <rect x="140" y="220" width="20" height="20" fill="#FF6347" />

    <!-- Text -->
    <text
      x="150"
      y="40"
      font-family="Arial"
      font-size="18"
      fill="#000000"
      text-anchor="middle"
    >
      Cloud Software
    </text>
    <text
      x="150"
      y="270"
      font-family="Arial"
      font-size="14"
      fill="#000000"
      text-anchor="middle"
    >
      Advanced Technology
    </text>
  </g>
</svg>
