<svg id="Layer_1" fill="#0072ec" enable-background="new 0 0 500 500" viewBox="0 0 500 500" xmlns="http://www.w3.org/2000/svg"><path clip-rule="evenodd" d="m309.296 380.97 60.629 75.461c.169.211.401.322.672.322h66.916c.768 0 1.152-.927.609-1.47l-101.504-101.503c-.336-.336-.882-.336-1.218 0l-26.042 26.042c-.312.312-.339.804-.062 1.148zm-202.015-116.044c-10.479-10.479-28.461-3.014-28.461 11.789 0 14.802 17.982 22.267 28.461 11.789 6.511-6.512 6.511-17.067 0-23.578zm309.015 0c-10.479-10.479-28.461-3.014-28.461 11.789 0 14.802 17.982 22.267 28.461 11.789 6.511-6.512 6.511-17.067 0-23.578zm-166.967 63.657c.346-.431.996-.431 1.343 0l101.852 126.77c.453.564.052 1.401-.671 1.401-67.901 0-135.803 0-203.705 0-.724 0-1.124-.837-.671-1.401zm-119.254 127.848 60.629-75.461c.277-.344.25-.836-.063-1.148l-26.041-26.042c-.336-.336-.883-.336-1.218 0l-101.503 101.503c-.543.543-.159 1.47.609 1.47h66.916c.27 0 .502-.111.671-.322zm234.174-146.978-18.594-15.105c-.553-.449-.355-1.334.336-1.505 7.864-1.943 14.389-8.954 15.195-16.604.071-.675.853-1.006 1.388-.588l45.813 35.893c10.19 7.984 15.813 18.986 15.813 31.932v77.533c0 .768-.927 1.152-1.47.609l-46.369-46.369c-.168-.168-.252-.372-.252-.609v-41.237c-.001-9.709-4.324-17.828-11.86-23.95zm-240.357 65.187c0 .237-.085.441-.252.609l-46.369 46.369c-.543.543-1.47.159-1.47-.609v-77.532c0-12.945 5.088-24.682 15.813-31.932 8.459-5.718 65.801-46.78 78.904-49.127.413-.075.708-.426.708-.846v-64.856c0-1.193-7.575-9.767-7.575-24.573v-38.424c0-5.218 2.886-9.794 7.14-12.212.277-.157.436-.431.436-.749l-.001-71.05c0-3.568 2.893-6.461 6.461-6.461h79.131c5.748 0 8.645 6.99 4.527 11.07l-13.599 13.6c-.336.336-.336.883 0 1.218l13.641 13.641c4.077 4.077 1.139 11.028-4.568 11.028l-71.808.001c-.474 0-.861.387-.861.861v26.092c0 .318.159.591.436.749 4.254 2.418 7.14 6.994 7.14 12.212v29.36c0 27.733 28.446 39.178 50.095 41.209 19.873 1.864 28.694 4.914 36.914 8.921 9.61 4.685 38.703 29.65 62.943 47.537.527.389 1.052.774 1.574 1.156 5.991 4.287 8.232 9.953 3.594 16.294-4.558 6.231-13.284 7.461-19.616 3.042l-44.509-31.057c-.572-.399-1.354.009-1.354.706v92.87c0 .812-1.024 1.172-1.533.539l-24.734-30.78c-2.575-3.212-7.467-3.4-10.122-.096l-24.808 30.877c-.509.633-1.533.272-1.533-.539v-84.168c0-14.464-6.115-26.91-17.563-35.749l-15.531-11.995c-.565-.447-1.396-.045-1.396.675v143.13c0 .768-.927 1.152-1.47.609l-11.2-11.199c-.168-.168-.252-.372-.252-.609v-60.292c0-.711-.818-1.116-1.383-.685l-34.09 25.98c-7.722 5.885-11.86 14.24-11.86 23.95zm126.108-231.36c-13.96 0-25.279 11.32-25.279 25.279 0 13.96 11.319 25.279 25.279 25.279s25.279-11.319 25.279-25.279-11.319-25.279-25.279-25.279z" fill-rule="evenodd"/></svg>