<svg id="Layer_1" fill="#0072ec"  enable-background="new 0 0 500 500" viewBox="0 0 500 500" xmlns="http://www.w3.org/2000/svg"><path clip-rule="evenodd" d="m324.776 57.624 7.251 22.463c.117.362.441.597.821.597l23.641-.045c3.901-.004 5.515 5.019 2.368 7.304l.006.008-19.147 13.855c-.308.223-.432.604-.314.965l7.347 22.465c1.112 3.41-2.68 7.097-6.493 4.311l-18.827-13.734c-.308-.224-.708-.224-1.015 0l-19.1 13.933c-3.153 2.298-7.407-.812-6.209-4.507l-.011-.003 7.347-22.465c.118-.362-.005-.742-.314-.965l-19.147-13.856c-2.92-2.114-1.991-7.316 2.697-7.311l23.318.045c.381.001.704-.234.821-.597l7.259-22.489c1.208-3.752 6.528-3.702 7.701.026zm-80.398 146.654c14.011 0 25.369-11.358 25.369-25.369s-11.358-25.369-25.369-25.369-25.369 11.358-25.369 25.369c-.001 14.01 11.357 25.369 25.369 25.369zm104.352 33.777c-9.486 0-17.175 7.689-17.175 17.175s7.69 17.175 17.175 17.175 17.175-7.69 17.175-17.175c.001-9.486-7.689-17.175-17.175-17.175zm-197.461 34.35c9.486 0 17.175-7.69 17.175-17.175 0-9.486-7.689-17.175-17.175-17.175s-17.175 7.689-17.175 17.175c0 9.485 7.69 17.175 17.175 17.175zm140.49 6.014c-.094-.207-.104-.416-.031-.631 1.858-5.491 3.795-10.521 5.768-15.21.227-.538.906-.7 1.351-.322 5.655 4.8 11.643 9.603 17.559 13.898 25.441 18.47 37.781 21.461 64.434 2.36 9.249-6.629 18.688-14.711 26.442-21.917 3.091-2.872 7.894.712 6.021 4.492-17.9 36.137-25.586 39.965-55.781 64.089-22.958 18.344-31.686 51.902-39.159 82.909-.115.476.184.946.664 1.045 24.76 5.097 47.881 12.88 68.573 22.959 3.425 1.668 4.85 5.797 3.182 9.223s-5.797 4.85-9.223 3.182c-77.98-37.98-185.141-37.98-263.121 0-3.426 1.668-7.555.243-9.223-3.182-1.668-3.426-.243-7.555 3.182-9.223 20.692-10.078 43.814-17.862 68.573-22.958.48-.099.779-.569.664-1.045-7.473-31.006-16.201-64.565-39.159-82.909-30.195-24.124-37.881-27.952-55.781-64.089-1.873-3.78 2.931-7.364 6.021-4.492 7.755 7.205 17.193 15.288 26.443 21.917 26.653 19.101 38.993 16.109 64.433-2.36 5.903-4.285 11.876-9.076 17.52-13.865.455-.386 1.148-.208 1.362.349 1.999 5.223 3.773 10.654 5.348 16.218.057.203.043.395-.043.587-11.78 26.274-19.379 51.6-11.221 84.785.006.024.012.044.019.067l13.181 39.543c.13.39.505.63.914.583 6.929-.783 13.961-1.364 21.081-1.73.486-.025.852-.44.814-.926-.353-4.576-.696-11.632-1.113-20.225-1.764-36.336-4.763-98.092-27.142-139.772-2.876-5.356-10.053-13.517-17.444-21.921-3.253-3.699-10.246-11.255-13.799-19.408-2.65-6.081-5.234-15.893 7-6.406 4.984 3.864 13.63 14.251 21.113 18.85 14.467 8.893 29.026 13.727 42.483 14.293 44.531 1.872 56.36-48.078 72.143-92.853.268-.76 1.342-.768 1.621-.013 14.437 39.017-7.352 92.056-23.455 111.139-.044.052-.077.1-.108.16-6.688 12.981-7.176 13.664-13.493 33.704-11.195 35.521-11.926 80.687-14.235 122.406-.027.48.338.885.819.908 7.561.362 15.023.964 22.369 1.794.409.046.784-.193.914-.583l13.181-39.543c.008-.023.014-.043.02-.067 8.265-33.617.36-59.169-11.681-85.81z" fill-rule="evenodd"/></svg>